<?xml version="1.0" encoding="UTF-8" standalone="no"?>
<!DOCTYPE svg PUBLIC "-//W3C//DTD SVG 1.1//EN"
 "http://www.w3.org/Graphics/SVG/1.1/DTD/svg11.dtd">
<!-- Generated by graphviz version 2.38.0 (20140413.2041)
 -->
<!-- Title: snakemake_dag Pages: 1 -->
<svg width="125pt" height="188pt"
 viewBox="0.00 0.00 125.00 188.00" xmlns="http://www.w3.org/2000/svg" xmlns:xlink="http://www.w3.org/1999/xlink">
<g id="graph0" class="graph" transform="scale(1 1) rotate(0) translate(4 184)">
<title>snakemake_dag</title>
<polygon fill="white" stroke="none" points="-4,4 -4,-184 121,-184 121,4 -4,4"/>
<!-- 0 -->
<g id="node1" class="node"><title>0</title>
<path fill="none" stroke="#d85656" stroke-width="2" d="M73.5,-36C73.5,-36 43.5,-36 43.5,-36 37.5,-36 31.5,-30 31.5,-24 31.5,-24 31.5,-12 31.5,-12 31.5,-6 37.5,-0 43.5,-0 43.5,-0 73.5,-0 73.5,-0 79.5,-0 85.5,-6 85.5,-12 85.5,-12 85.5,-24 85.5,-24 85.5,-30 79.5,-36 73.5,-36"/>
<text text-anchor="middle" x="58.5" y="-15.5" font-family="sans" font-size="10.00">target</text>
</g>
<!-- 1 -->
<g id="node2" class="node"><title>1</title>
<path fill="none" stroke="#56d8a9" stroke-width="2" d="M105,-180C105,-180 12,-180 12,-180 6,-180 -7.10543e-15,-174 -7.10543e-15,-168 -7.10543e-15,-168 -7.10543e-15,-156 -7.10543e-15,-156 -7.10543e-15,-150 6,-144 12,-144 12,-144 105,-144 105,-144 111,-144 117,-150 117,-156 117,-156 117,-168 117,-168 117,-174 111,-180 105,-180"/>
<text text-anchor="middle" x="58.5" y="-165" font-family="sans" font-size="10.00">bwa_mem</text>
<text text-anchor="middle" x="58.5" y="-154" font-family="sans" font-size="10.00">sample: AF346983_1</text>
</g>
<!-- 2 -->
<g id="node3" class="node"><title>2</title>
<path fill="none" stroke="#afd856" stroke-width="2" d="M97.5,-108C97.5,-108 19.5,-108 19.5,-108 13.5,-108 7.5,-102 7.5,-96 7.5,-96 7.5,-84 7.5,-84 7.5,-78 13.5,-72 19.5,-72 19.5,-72 97.5,-72 97.5,-72 103.5,-72 109.5,-78 109.5,-84 109.5,-84 109.5,-96 109.5,-96 109.5,-102 103.5,-108 97.5,-108"/>
<text text-anchor="middle" x="58.5" y="-87.5" font-family="sans" font-size="10.00">samtools_flagstat</text>
</g>
<!-- 1&#45;&gt;2 -->
<g id="edge2" class="edge"><title>1&#45;&gt;2</title>
<path fill="none" stroke="grey" stroke-width="2" d="M58.5,-143.697C58.5,-135.983 58.5,-126.712 58.5,-118.112"/>
<polygon fill="grey" stroke="grey" stroke-width="2" points="62.0001,-118.104 58.5,-108.104 55.0001,-118.104 62.0001,-118.104"/>
</g>
<!-- 2&#45;&gt;0 -->
<g id="edge1" class="edge"><title>2&#45;&gt;0</title>
<path fill="none" stroke="grey" stroke-width="2" d="M58.5,-71.6966C58.5,-63.9827 58.5,-54.7125 58.5,-46.1124"/>
<polygon fill="grey" stroke="grey" stroke-width="2" points="62.0001,-46.1043 58.5,-36.1043 55.0001,-46.1044 62.0001,-46.1043"/>
</g>
</g>
</svg>
