<?xml version="1.0" encoding="UTF-8" standalone="no"?>
<!-- Created with Inkscape (http://www.inkscape.org/) -->

<svg
   xmlns:dc="http://purl.org/dc/elements/1.1/"
   xmlns:cc="http://creativecommons.org/ns#"
   xmlns:rdf="http://www.w3.org/1999/02/22-rdf-syntax-ns#"
   xmlns:svg="http://www.w3.org/2000/svg"
   xmlns="http://www.w3.org/2000/svg"
   xmlns:xlink="http://www.w3.org/1999/xlink"
   xmlns:sodipodi="http://sodipodi.sourceforge.net/DTD/sodipodi-0.dtd"
   xmlns:inkscape="http://www.inkscape.org/namespaces/inkscape"
   version="1.0"
   id="svg2"
   sodipodi:version="0.32"
   inkscape:version="0.91 r13725"
   sodipodi:docname="logos.svg"
   width="507.81757pt"
   height="120pt">
  <metadata
     id="metadata371">
    <rdf:RDF>
      <cc:Work
         rdf:about="">
        <dc:format>image/svg+xml</dc:format>
        <dc:type
           rdf:resource="http://purl.org/dc/dcmitype/StillImage" />
        <dc:title></dc:title>
      </cc:Work>
    </rdf:RDF>
  </metadata>
  <sodipodi:namedview
     inkscape:window-height="1136"
     inkscape:window-width="1920"
     inkscape:pageshadow="2"
     inkscape:pageopacity="0.0"
     guidetolerance="10.0"
     gridtolerance="10.0"
     objecttolerance="10.0"
     borderopacity="1.0"
     bordercolor="#666666"
     pagecolor="#ffffff"
     id="base"
     inkscape:zoom="0.53654105"
     inkscape:cx="310.69311"
     inkscape:cy="-27.942942"
     inkscape:window-x="0"
     inkscape:window-y="27"
     inkscape:current-layer="svg2"
     width="210mm"
     height="40mm"
     units="pt"
     showgrid="false"
     fit-margin-top="0"
     fit-margin-left="0"
     fit-margin-right="0"
     fit-margin-bottom="0"
     inkscape:window-maximized="1" />
  <defs
     id="defs4">
    <linearGradient
       id="linearGradient2795">
      <stop
         style="stop-color:#b8b8b8;stop-opacity:0.49803922;"
         offset="0"
         id="stop2797" />
      <stop
         style="stop-color:#7f7f7f;stop-opacity:0;"
         offset="1"
         id="stop2799" />
    </linearGradient>
    <linearGradient
       id="linearGradient2787">
      <stop
         style="stop-color:#7f7f7f;stop-opacity:0.5;"
         offset="0"
         id="stop2789" />
      <stop
         style="stop-color:#7f7f7f;stop-opacity:0;"
         offset="1"
         id="stop2791" />
    </linearGradient>
    <linearGradient
       id="linearGradient3676">
      <stop
         style="stop-color:#b2b2b2;stop-opacity:0.5;"
         offset="0"
         id="stop3678" />
      <stop
         style="stop-color:#b3b3b3;stop-opacity:0;"
         offset="1"
         id="stop3680" />
    </linearGradient>
    <linearGradient
       id="linearGradient3236">
      <stop
         style="stop-color:#f4f4f4;stop-opacity:1"
         offset="0"
         id="stop3244" />
      <stop
         style="stop-color:white;stop-opacity:1"
         offset="1"
         id="stop3240" />
    </linearGradient>
    <linearGradient
       id="linearGradient4671">
      <stop
         style="stop-color:#ffd43b;stop-opacity:1;"
         offset="0"
         id="stop4673" />
      <stop
         style="stop-color:#ffe873;stop-opacity:1"
         offset="1"
         id="stop4675" />
    </linearGradient>
    <linearGradient
       id="linearGradient4689">
      <stop
         style="stop-color:#5a9fd4;stop-opacity:1;"
         offset="0"
         id="stop4691" />
      <stop
         style="stop-color:#306998;stop-opacity:1;"
         offset="1"
         id="stop4693" />
    </linearGradient>
    <linearGradient
       x1="224.23996"
       y1="144.75717"
       x2="-65.308502"
       y2="144.75717"
       id="linearGradient2987"
       xlink:href="#linearGradient4671"
       gradientUnits="userSpaceOnUse"
       gradientTransform="translate(100.2702,99.61116)" />
    <linearGradient
       x1="172.94208"
       y1="77.475983"
       x2="26.670298"
       y2="76.313133"
       id="linearGradient2990"
       xlink:href="#linearGradient4689"
       gradientUnits="userSpaceOnUse"
       gradientTransform="translate(100.2702,99.61116)" />
    <linearGradient
       inkscape:collect="always"
       xlink:href="#linearGradient4689"
       id="linearGradient2587"
       gradientUnits="userSpaceOnUse"
       gradientTransform="translate(100.2702,99.61116)"
       x1="172.94208"
       y1="77.475983"
       x2="26.670298"
       y2="76.313133" />
    <linearGradient
       inkscape:collect="always"
       xlink:href="#linearGradient4671"
       id="linearGradient2589"
       gradientUnits="userSpaceOnUse"
       gradientTransform="translate(100.2702,99.61116)"
       x1="224.23996"
       y1="144.75717"
       x2="-65.308502"
       y2="144.75717" />
    <linearGradient
       inkscape:collect="always"
       xlink:href="#linearGradient4689"
       id="linearGradient2248"
       gradientUnits="userSpaceOnUse"
       gradientTransform="translate(100.2702,99.61116)"
       x1="172.94208"
       y1="77.475983"
       x2="26.670298"
       y2="76.313133" />
    <linearGradient
       inkscape:collect="always"
       xlink:href="#linearGradient4671"
       id="linearGradient2250"
       gradientUnits="userSpaceOnUse"
       gradientTransform="translate(100.2702,99.61116)"
       x1="224.23996"
       y1="144.75717"
       x2="-65.308502"
       y2="144.75717" />
    <linearGradient
       inkscape:collect="always"
       xlink:href="#linearGradient4671"
       id="linearGradient2255"
       gradientUnits="userSpaceOnUse"
       gradientTransform="matrix(0.562541,0,0,0.567972,-11.5974,-7.60954)"
       x1="224.23996"
       y1="144.75717"
       x2="-65.308502"
       y2="144.75717" />
    <linearGradient
       inkscape:collect="always"
       xlink:href="#linearGradient4689"
       id="linearGradient2258"
       gradientUnits="userSpaceOnUse"
       gradientTransform="matrix(0.562541,0,0,0.567972,-11.5974,-7.60954)"
       x1="172.94208"
       y1="76.176224"
       x2="26.670298"
       y2="76.313133" />
    <radialGradient
       inkscape:collect="always"
       xlink:href="#linearGradient2795"
       id="radialGradient2801"
       cx="61.518883"
       cy="132.28575"
       fx="61.518883"
       fy="132.28575"
       r="29.036913"
       gradientTransform="matrix(1,0,0,0.177966,0,108.7434)"
       gradientUnits="userSpaceOnUse" />
    <linearGradient
       inkscape:collect="always"
       xlink:href="#linearGradient4671"
       id="linearGradient1475"
       gradientUnits="userSpaceOnUse"
       gradientTransform="matrix(0.75079547,0,0,0.75804396,5.5834703,305.42064)"
       x1="150.96111"
       y1="192.35176"
       x2="112.03144"
       y2="137.27299" />
    <linearGradient
       inkscape:collect="always"
       xlink:href="#linearGradient4689"
       id="linearGradient1478"
       gradientUnits="userSpaceOnUse"
       gradientTransform="matrix(0.75079547,0,0,0.75804396,5.5834703,305.42064)"
       x1="26.648937"
       y1="20.603781"
       x2="135.66525"
       y2="114.39767" />
    <linearGradient
       spreadMethod="pad"
       gradientUnits="userSpaceOnUse"
       y2="593.78699"
       y1="3.6658268"
       x2="590.86261"
       x1="0.7414425"
       id="gradientFill-1"
       gradientTransform="scale(1.2219423,0.81836924)">
      <stop
         id="stop4279"
         stop-opacity="1"
         stop-color="rgb(203,206,208)"
         offset="0" />
      <stop
         id="stop4281"
         stop-opacity="1"
         stop-color="rgb(132,131,139)"
         offset="1" />
    </linearGradient>
    <linearGradient
       spreadMethod="pad"
       gradientUnits="userSpaceOnUse"
       y2="553.44208"
       y1="151.4006"
       x2="703.0675"
       x1="301.02603"
       id="gradientFill-2"
       gradientTransform="scale(0.9899476,1.0101545)">
      <stop
         id="stop4284"
         stop-opacity="1"
         stop-color="rgb(39,109,195)"
         offset="0" />
      <stop
         id="stop4286"
         stop-opacity="1"
         stop-color="rgb(22,92,170)"
         offset="1" />
    </linearGradient>
  </defs>
  <g
     id="g4317"
     transform="translate(-25.59137,-321.03921)">
    <path
       inkscape:connector-curvature="0"
       id="path1948"
       d="m 98.88874,321.04044 c -6.117573,0.0285 -11.959718,0.55016 -17.100207,1.45977 -15.14323,2.6753 -17.892652,8.27496 -17.892654,18.60169 l 0,13.63848 35.785309,0 0,4.54615 -35.785309,0 -13.429918,0 c -10.400206,0 -19.506926,6.2511 -22.355391,18.14289 -3.285669,13.63073 -3.431407,22.13653 0,36.3692 2.543748,10.59427 8.618561,18.14291 19.018766,18.14291 l 12.303806,0 0,-16.34945 c 0,-11.81153 10.219608,-22.23027 22.355391,-22.23027 l 35.743597,0 c 9.94975,0 17.89267,-8.19232 17.89266,-18.18461 l 0,-34.0753 c 0,-9.69801 -8.18138,-16.98313 -17.89266,-18.60169 -6.14738,-1.02331 -12.52581,-1.4882 -18.64339,-1.45977 z m -19.352429,10.96917 c 3.696378,0 6.71496,3.06788 6.71496,6.84007 -10e-7,3.75881 -3.018582,6.79837 -6.71496,6.79837 -3.709627,0 -6.714959,-3.03956 -6.714959,-6.79837 -10e-7,-3.77219 3.005332,-6.84007 6.714959,-6.84007 z"
       style="fill:url(#linearGradient1478);fill-opacity:1" />
    <path
       inkscape:connector-curvature="0"
       id="path1950"
       d="m 139.88752,359.28653 0,15.89067 c 0,12.3198 -10.44482,22.68904 -22.35539,22.68904 l -35.743597,0 c -9.79077,0 -17.892652,8.37957 -17.892654,18.18463 l 0,34.07526 c 0,9.69803 8.433105,15.4023 17.892654,18.18461 11.32762,3.33077 22.190217,3.93272 35.743597,0 9.0091,-2.60843 17.89267,-7.8579 17.89266,-18.18461 l 0,-13.63845 -35.743602,0 0,-4.54615 35.743602,0 17.89266,0 c 10.40021,0 14.27575,-7.25437 17.89264,-18.14291 3.73613,-11.20956 3.57714,-21.98939 0,-36.3692 -2.57024,-10.35348 -7.47922,-18.14289 -17.89264,-18.14289 l -13.42993,0 z M 119.78435,445.58 c 3.70964,0 6.71497,3.03953 6.71497,6.79835 -1e-5,3.77218 -3.00534,6.84009 -6.71497,6.84009 -3.69638,0 -6.71495,-3.06791 -6.71495,-6.84009 0,-3.75882 3.01857,-6.79835 6.71495,-6.79835 z"
       style="fill:url(#linearGradient1475);fill-opacity:1" />
  </g>
  <g
     id="g4302"
     transform="matrix(0.26975409,0,0,0.26975409,219.06281,-0.80926227)">
    <path
       id="path4288"
       d="M 361.453,485.937 C 162.329,485.937 0.906,377.828 0.906,244.469 0.906,111.109 162.329,3 361.453,3 560.578,3 722,111.109 722,244.469 722,377.828 560.578,485.937 361.453,485.937 Z M 416.641,97.406 c -151.352,0 -274.047,73.908 -274.047,165.078 0,91.17 122.695,165.078 274.047,165.078 151.351,0 263.046,-50.529 263.046,-165.078 0,-114.513 -111.695,-165.078 -263.046,-165.078 z"
       inkscape:connector-curvature="0"
       style="fill:url(#gradientFill-1);fill-rule:evenodd" />
    <path
       id="path4290"
       d="m 550,377 c 0,0 21.822,6.585 34.5,13 4.399,2.226 12.01,6.668 17.5,12.5 5.378,5.712 8,11.5 8,11.5 L 696,559 557,559.062 492,437 c 0,0 -13.31,-22.869 -21.5,-29.5 -6.832,-5.531 -9.745,-7.5 -16.5,-7.5 -4.702,0 -33.026,0 -33.026,0 l 0.026,158.974 -123,0.052 0,-406.088 247,0 c 0,0 112.5,2.029 112.5,109.062 0,107.033 -107.5,115 -107.5,115 z m -53.5,-135.976 -74.463,-0.048 -0.037,69.05 74.5,-0.024 c 0,0 34.5,-0.107 34.5,-35.125 0,-35.722 -34.5,-33.853 -34.5,-33.853 z"
       inkscape:connector-curvature="0"
       style="fill:url(#gradientFill-2);fill-rule:evenodd" />
  </g>
  <path
     id="path4308"
     d="m 555.0789,17.672208 a 4.4583961,4.4583961 0 1 1 8.91679,0 4.4583961,4.4583961 0 0 1 -8.91679,0 m -53.1866,40.36656 a 4.4583961,4.4583961 0 1 1 8.91679,0 4.4583961,4.4583961 0 0 1 -8.91679,0 m 106.37177,0.20799 a 4.4583961,4.4583961 0 1 1 8.91679,0 4.4583961,4.4583961 0 0 1 -8.91679,0 m -93.46567,6.10807 c 2.05133,-0.91091 2.97801,-3.31511 2.06711,-5.37073 l -1.97816,-4.47275 7.77924,0 0,35.06469 -15.69477,0 a 54.890775,54.890775 0 0 1 -1.77733,-20.95361 z m 32.54143,0.86212 0,-10.3355 18.525,0 c 0.9568,0 6.75645,1.10599 6.75645,5.44246 0,3.60057 -4.44836,4.89161 -8.10631,4.89161 z m -25.29151,55.648202 a 4.4583961,4.4583961 0 1 1 8.91679,0 4.4583961,4.4583961 0 0 1 -8.91679,0 m 66.05971,0.20799 a 4.4584005,4.4584005 0 1 1 8.9168,0 4.4584005,4.4584005 0 0 1 -8.9168,0 m 1.37856,-10.11028 c -2.19621,-0.47052 -4.35655,0.92668 -4.82707,3.12718 l -2.2378,10.44309 a 54.890775,54.890775 0 0 1 -45.77602,-0.21947 l -2.23638,-10.44309 c -0.47051,-2.19765 -2.63086,-3.59771 -4.82562,-3.12575 l -9.21947,1.97959 a 54.890775,54.890775 0 0 1 -4.76682,-5.6189 l 44.85939,0 c 0.50781,0 0.84635,-0.0918 0.84635,-0.55371 l 0,-15.868342 c 0,-0.4619 -0.33854,-0.55371 -0.84635,-0.55371 l -13.11984,0 0,-10.05864 14.18997,0 c 1.29535,0 6.92572,0.37009 8.726,7.56693 0.56376,2.21342 1.80173,9.41313 2.64807,11.71835 0.84348,2.584952 4.27765,7.749122 7.93704,7.749122 l 23.16128,0 a 54.890775,54.890775 0 0 1 -5.08383,5.88428 z m 24.90992,-41.897172 a 54.890775,54.890775 0 0 1 0.11619,9.52932 l -5.6318,0 c -0.56376,0 -0.79041,0.37011 -0.79041,0.92238 l 0,2.58639 c 0,6.08798 -3.43274,7.41201 -6.44086,7.74911 -2.86468,0.32277 -6.04064,-1.19923 -6.43226,-2.95218 -1.68982,-9.50493 -4.50574,-11.53474 -8.95265,-15.04207 5.51848,-3.50446 11.26075,-8.67436 11.26075,-15.59434 0,-7.47226 -5.12256,-12.17883 -8.61411,-14.48692 -4.89879,-3.22904 -10.3226,-3.87599 -11.78579,-3.87599 l -58.2446,0 a 54.890775,54.890775 0 0 1 30.70957,-17.33151 l 6.86547,7.20258 c 1.55212,1.62527 4.12273,1.68552 5.74656,0.13196 l 7.68171,-7.34745 a 54.890775,54.890775 0 0 1 37.57791,26.76328 l -5.25885,11.87758 c -0.90803,2.05563 0.0186,4.45984 2.06854,5.37073 z m 13.11554,0.19222 -0.1793,-1.83614 5.41663,-5.05228 c 1.10169,-1.02709 0.68999,-3.09419 -0.71869,-3.61921 l -6.92428,-2.58927 -0.54224,-1.78736 4.31925,-5.99905 c 0.88078,-1.21931 0.0717,-3.16592 -1.41153,-3.40978 l -7.30155,-1.18776 -0.87791,-1.63962 3.06837,-6.73494 c 0.62831,-1.37137 -0.53937,-3.12575 -2.04845,-3.06837 l -7.41058,0.25821 -1.17054,-1.42014 1.70274,-7.21836 c 0.34428,-1.46605 -1.14329,-2.95505 -2.60934,-2.61077 l -7.21692,1.7013 -1.42302,-1.17054 0.25965,-7.41058 c 0.0574,-1.50048 -1.69844,-2.67246 -3.06695,-2.04988 l -6.73349,3.0698 -1.63963,-0.87934 -1.19062,-7.3029903 c -0.241,-1.48039 -2.18904,-2.28945 -3.40836,-1.41154 l -6.00334,4.3192603 -1.7845,-0.5408103 -2.58926,-6.92572 c -0.52502,-1.41154 -2.59356,-1.81749997 -3.61778,-0.72155 l -5.05228,5.42094 -1.83614,-0.17931 -3.90182,-6.30457997 c -0.78897,-1.2767 -2.90197,-1.2767 -3.68807,0 l -3.90182,6.30457997 -1.83758,0.17931 -5.05371,-5.42094 c -1.02422,-1.09594997 -3.09276,-0.68999 -3.61778,0.72155 l -2.58926,6.92572 -1.78594,0.5408103 -6.0019,-4.3192603 c -1.21932,-0.88077 -3.16879,-0.0689 -3.40979,1.41154 l -1.19062,7.3029903 -1.63963,0.87934 -6.73349,-3.0698 c -1.36851,-0.62544 -3.12433,0.5494 -3.06695,2.04988 l 0.25821,7.41058 -1.42302,1.17054 -7.21692,-1.7013 c -1.46605,-0.34141 -2.95505,1.14472 -2.61077,2.61077 l 1.69987,7.21836 -1.16768,1.42014 -7.41057,-0.25821 c -1.49474,-0.043 -2.67246,1.697 -2.04989,3.06837 l 3.06982,6.73494 -0.87934,1.63962 -7.30156,1.18776 c -1.48327,0.24099 -2.28658,2.19047 -1.41154,3.40978 l 4.31925,5.99905 -0.54224,1.78736 -6.92572,2.58927 c -1.40581,0.52502 -1.8175,2.59212 -0.71868,3.61921 l 5.41807,5.05228 -0.17931,1.83614 -6.30315,3.90182 c -1.2767,0.78897 -1.2767,2.90198 0,3.68807 l 6.30315,3.90181 0.17931,1.83615 -5.41807,5.05372 c -1.09882,1.02422 -0.68713,3.08989 0.71868,3.61778 l 6.92572,2.58925 0.54224,1.78738 -4.31925,6.000472 c -0.87791,1.22219 -0.0703,3.17023 1.41297,3.40835 l 7.30013,1.18776 0.87934,1.6425 -3.06982,6.73205 c -0.62544,1.3685 0.55515,3.12862 2.04989,3.06838 l 7.40771,-0.25964 1.17054,1.42302 -1.69987,7.21979 c -0.34428,1.46318 1.14472,2.9493 2.61077,2.60503 l 7.21692,-1.69988 1.42302,1.16768 -0.25821,7.41201 c -0.0574,1.50048 1.69844,2.6739 3.06695,2.04846 l 6.73349,-3.06838 1.63963,0.87934 1.19062,7.29869 c 0.241,1.48613 2.19047,2.28945 3.40979,1.41441 l 5.99903,-4.32212 1.78738,0.54367 2.58926,6.92285 c 0.52502,1.4058 2.59355,1.82037 3.61777,0.71868 l 5.05372,-5.41808 1.83758,0.18363 3.90181,6.30314 c 0.7861,1.27097 2.89911,1.27384 3.68808,0 l 3.90182,-6.30314 1.83614,-0.18363 5.05228,5.41808 c 1.02422,1.10169 3.09276,0.68712 3.61778,-0.71868 l 2.58925,-6.92285 1.78738,-0.54367 6.00047,4.32212 c 1.21932,0.87504 3.16735,0.0689 3.40836,-1.41441 l 1.19061,-7.29869 1.63963,-0.87934 6.7335,3.06838 c 1.36851,0.62544 3.12145,-0.54511 3.06694,-2.04846 l -0.25821,-7.41201 1.42158,-1.16768 7.21692,1.69988 c 1.46605,0.34427 2.95362,-1.14185 2.60934,-2.60503 l -1.69987,-7.21979 1.16768,-1.42302 7.41057,0.25964 c 1.49474,0.0602 2.67676,-1.69988 2.04846,-3.06838 l -3.06838,-6.73205 0.87791,-1.6425 7.30155,-1.18776 c 1.48614,-0.23812 2.29232,-2.18616 1.41154,-3.40835 l -4.31925,-6.000472 0.54224,-1.78738 6.92428,-2.58925 c 1.40868,-0.52789 1.82037,-2.59356 0.71868,-3.61778 l -5.41663,-5.05372 0.17931,-1.83615 6.30315,-3.90181 c 1.27673,-0.78609 1.27813,-2.8991 10e-4,-3.68807 z"
     inkscape:connector-curvature="0" />
</svg>
