<?xml version="1.0" encoding="UTF-8" standalone="no"?>
<svg
   xmlns:dc="http://purl.org/dc/elements/1.1/"
   xmlns:cc="http://creativecommons.org/ns#"
   xmlns:rdf="http://www.w3.org/1999/02/22-rdf-syntax-ns#"
   xmlns:svg="http://www.w3.org/2000/svg"
   xmlns="http://www.w3.org/2000/svg"
   xmlns:sodipodi="http://sodipodi.sourceforge.net/DTD/sodipodi-0.dtd"
   xmlns:inkscape="http://www.inkscape.org/namespaces/inkscape"
   id="Layer_1"
   viewBox="0 0 206.8 40.1"
   version="1.1"
   inkscape:version="0.91 r13725"
   sodipodi:docname="logo-continuum-white.svg">
  <metadata
     id="metadata11">
    <rdf:RDF>
      <cc:Work
         rdf:about="">
        <dc:format>image/svg+xml</dc:format>
        <dc:type
           rdf:resource="http://purl.org/dc/dcmitype/StillImage" />
      </cc:Work>
    </rdf:RDF>
  </metadata>
  <defs
     id="defs9" />
  <sodipodi:namedview
     pagecolor="#ffffff"
     bordercolor="#666666"
     borderopacity="1"
     objecttolerance="10"
     gridtolerance="10"
     guidetolerance="10"
     inkscape:pageopacity="0"
     inkscape:pageshadow="2"
     inkscape:window-width="1920"
     inkscape:window-height="1136"
     id="namedview7"
     showgrid="false"
     inkscape:zoom="1.4700193"
     inkscape:cx="104.76053"
     inkscape:cy="20.049999"
     inkscape:window-x="0"
     inkscape:window-y="27"
     inkscape:window-maximized="1"
     inkscape:current-layer="Layer_1" />
  <style
     id="style3">.st0{fill:#fff}</style>
  <path
     class="st0"
     d="M11.6 0c3.2 0 5.6 1 7.8 3 .3.3.3.6 0 .9l-2 2c-.2.3-.5.3-.8 0C15.3 4.7 13.5 4 11.7 4c-4.1 0-7.1 3.4-7.1 7.5 0 4 3.1 7.4 7.2 7.4 1.9 0 3.6-.7 4.9-1.8.3-.2.6-.2.8 0l2 2.1c.3.2.2.6 0 .9-2.2 2.1-4.9 3.1-7.8 3.1C5.2 23.1 0 18 0 11.6S5.2 0 11.6 0M34 18.9c4 0 7.4-3.3 7.4-7.3S38.1 4.2 34 4.2s-7.3 3.4-7.3 7.4 3.3 7.3 7.3 7.3M34 0c6.4 0 11.5 5.2 11.5 11.6S40.4 23.1 34 23.1 22.5 18 22.5 11.6 27.6 0 34 0M50.4.6c0-.3.3-.6.6-.6h.8l13.3 14.2V.9c0-.3.3-.6.6-.6h2.9c.3 0 .6.3.6.6v21.6c0 .3-.3.6-.6.6h-.8L54.5 8.4v13.8c0 .3-.3.6-.6.6H51c-.3 0-.6-.3-.6-.6V.6zM78.8 4.2h-4.9c-.4 0-.6-.3-.6-.6V.9c0-.3.3-.6.6-.6h14c.4 0 .6.3.6.6v2.6c0 .3-.3.6-.6.6H83v18c0 .3-.3.6-.6.6h-3c-.3 0-.6-.3-.6-.6V4.2zM92.5.9c0-.3.3-.6.6-.6h3c.3 0 .6.3.6.6v21.2c0 .3-.3.6-.6.6h-3c-.3 0-.6-.3-.6-.6V.9zM103.1.6c0-.3.3-.6.6-.6h.8l13.3 14.2V.9c0-.3.3-.6.6-.6h2.9c.3 0 .6.3.6.6v21.6c0 .3-.3.6-.6.6h-.8L107.3 8.4v13.8c0 .3-.3.6-.6.6h-2.9c-.3 0-.6-.3-.6-.6V.6zM128.2.9c0-.3.3-.6.6-.6h3c.4 0 .6.3.6.6V14c0 2.7 1.9 4.9 4.6 4.9 2.8 0 4.7-2.1 4.7-4.8V.9c0-.3.3-.6.6-.6h3c.3 0 .6.3.6.6v13.3c0 4.9-3.9 8.8-8.9 8.8s-8.9-3.9-8.9-8.8V.9zM151.9.9c0-.3.3-.6.6-.6h3c.4 0 .6.3.6.6V14c0 2.7 1.9 4.9 4.6 4.9 2.8 0 4.7-2.1 4.7-4.8V.9c0-.3.3-.6.6-.6h3c.3 0 .6.3.6.6v13.3c0 4.9-3.9 8.8-8.9 8.8s-8.9-3.9-8.9-8.8V.9zM178.2.5c0-.3.2-.5.6-.5h.5c.3 0 .4.1.5.3l7 15.1h.1l7-15.1c.1-.2.3-.3.5-.3h.5c.4 0 .5.2.6.5l3.8 21.5c.1.4-.2.7-.6.7H196c-.3 0-.5-.3-.6-.5l-1.9-12.1h-.1l-5.6 12.6c-.1.2-.3.4-.5.4h-.6c-.3 0-.4-.2-.5-.4l-5.7-12.6h-.1l-1.9 12.1c0 .2-.3.5-.6.5H175c-.4 0-.7-.3-.6-.7L178.2.5zM122.6 36.4l-1.8-4h-.1l-1.8 4h3.7zm-6.6 3.1l4.5-9.9c0-.1.2-.2.2-.2h.1c.1 0 .2.1.2.2l4.5 9.9c.1.2 0 .4-.2.4h-.9c-.2 0-.3-.1-.3-.2l-.9-2h-4.8c-.3.7-.6 1.3-.9 2 0 .1-.2.2-.3.2h-.9c-.3 0-.4-.2-.3-.4M128.2 29.8c0-.1.1-.3.3-.3h.4l6.4 7.4V30c0-.1.1-.3.3-.3h.9c.1 0 .3.1.3.3v9.9c0 .1-.1.3-.3.3h-.4l-6.4-7.6v7.1c0 .1-.1.3-.3.3h-.9c-.1 0-.3-.1-.3-.3v-9.9zM146.1 36.4l-1.8-4h-.1l-1.8 4h3.7zm-6.7 3.1l4.5-9.9c0-.1.2-.2.2-.2h.1c.1 0 .2.1.2.2l4.5 9.9c.1.2 0 .4-.2.4h-.9c-.2 0-.3-.1-.3-.2l-.9-2h-4.8c-.3.7-.6 1.3-.9 2 0 .1-.2.2-.3.2h-.9c-.3 0-.4-.2-.3-.4M151.7 29.9c0-.1.1-.3.3-.3h1c.1 0 .3.1.3.3v8.6h4c.2 0 .3.1.3.3v.8c0 .1-.1.3-.3.3h-5.2c-.2 0-.3-.1-.3-.3v-9.7zM161.4 35l-3.4-4.9c-.1-.2 0-.4.2-.4h1.1c.1 0 .2.1.2.1l2.7 3.7 2.7-3.7c0-.1.1-.1.2-.1h1.1c.2 0 .4.2.2.4l-3.5 4.9v4.7c0 .1-.1.3-.3.3h-1c-.2 0-.3-.1-.3-.3V35zM170.9 31h-2.4c-.2 0-.3-.1-.3-.3v-.8c0-.1.1-.3.3-.3h6.3c.2 0 .3.1.3.3v.8c0 .1-.1.3-.3.3h-2.4v8.6c0 .1-.1.3-.3.3h-1c-.1 0-.3-.1-.3-.3V31zM177.9 29.9c0-.1.1-.3.3-.3h1c.1 0 .3.1.3.3v9.7c0 .1-.1.3-.3.3h-1c-.1 0-.3-.1-.3-.3v-9.7zM187.9 29.5c1.5 0 2.6.5 3.6 1.4.1.1.1.3 0 .4l-.6.7c-.1.1-.2.1-.4 0-.7-.6-1.6-1-2.5-1-2.1 0-3.7 1.8-3.7 3.8s1.6 3.8 3.7 3.8c1.1 0 1.8-.4 2.5-1 .1-.1.3-.1.4 0l.7.7c.1.1.1.3 0 .4-1 1-2.3 1.4-3.6 1.4-2.9 0-5.3-2.3-5.3-5.3s2.3-5.3 5.2-5.3M194.1 38.4c.1-.2.2-.4.4-.6.1-.2.3-.2.5-.1.1.1 1.2 1 2.3 1 1 0 1.7-.6 1.7-1.4 0-.9-.8-1.4-2.2-2-1.5-.6-2.7-1.4-2.7-3.1 0-1.1.9-2.7 3.2-2.7 1.5 0 2.6.8 2.7.9.1.1.2.3.1.5s-.2.4-.4.6c-.1.2-.3.3-.5.1-.1-.1-1.1-.7-2-.7-1.2 0-1.7.8-1.7 1.3 0 .8.6 1.3 1.9 1.8 1.7.7 3.2 1.5 3.2 3.3 0 1.5-1.4 2.8-3.3 2.8-1.8 0-2.9-.9-3.2-1.2 0-.1-.1-.2 0-.5M203.8 0c1.6 0 3 1.3 3 3s-1.3 3-3 3c-1.6 0-3-1.3-3-3s1.4-3 3-3zm0 5.4c1.3 0 2.4-1.1 2.4-2.4 0-1.3-1.1-2.4-2.4-2.4-1.3 0-2.4 1.1-2.4 2.4 0 1.3 1.1 2.4 2.4 2.4zm-1.1-3.8c0-.1.1-.2.2-.2h1.2c.5 0 1 .3 1 1 0 .6-.4.8-.6.9.1.3.3.6.4.9.1.1 0 .2-.1.2h-.4c-.1 0-.1-.1-.1-.1l-.4-1h-.5v.9c0 .1-.1.2-.2.2h-.3c-.1 0-.2-.1-.2-.2V1.6zm1.4 1.2c.2 0 .4-.2.4-.4s-.2-.4-.4-.4h-.7v.8h.7z"
     id="path5"
     style="fill:#000000;fill-opacity:1" />
</svg>
