<?xml version="1.0" encoding="UTF-8" standalone="no"?>
<!DOCTYPE svg PUBLIC "-//W3C//DTD SVG 1.1//EN"
 "http://www.w3.org/Graphics/SVG/1.1/DTD/svg11.dtd">
<!-- Generated by graphviz version 2.38.0 (20140413.2041)
 -->
<!-- Title: snakemake_dag Pages: 1 -->
<svg width="1119pt" height="1484pt"
 viewBox="0.00 0.00 1118.89 1484.00" xmlns="http://www.w3.org/2000/svg" xmlns:xlink="http://www.w3.org/1999/xlink">
<g id="graph0" class="graph" transform="scale(1 1) rotate(0) translate(4 1480)">
<title>snakemake_dag</title>
<polygon fill="white" stroke="none" points="-4,4 -4,-1480 1114.89,-1480 1114.89,4 -4,4"/>
<!-- 0 -->
<g id="node1" class="node"><title>0</title>
<path fill="none" stroke="#8fd856" stroke-width="2" d="M721.394,-324C721.394,-324 668.394,-324 668.394,-324 662.394,-324 656.394,-318 656.394,-312 656.394,-312 656.394,-300 656.394,-300 656.394,-294 662.394,-288 668.394,-288 668.394,-288 721.394,-288 721.394,-288 727.394,-288 733.394,-294 733.394,-300 733.394,-300 733.394,-312 733.394,-312 733.394,-318 727.394,-324 721.394,-324"/>
<text text-anchor="middle" x="694.894" y="-303.5" font-family="sans" font-size="10.00">fam_seq_BN</text>
</g>
<!-- 3 -->
<g id="node4" class="node"><title>3</title>
<path fill="none" stroke="#78d856" stroke-width="2" d="M565.394,-252C565.394,-252 528.394,-252 528.394,-252 522.394,-252 516.394,-246 516.394,-240 516.394,-240 516.394,-228 516.394,-228 516.394,-222 522.394,-216 528.394,-216 528.394,-216 565.394,-216 565.394,-216 571.394,-216 577.394,-222 577.394,-228 577.394,-228 577.394,-240 577.394,-240 577.394,-246 571.394,-252 565.394,-252"/>
<text text-anchor="middle" x="546.894" y="-231.5" font-family="sans" font-size="10.00">bgzip_vcf</text>
</g>
<!-- 0&#45;&gt;3 -->
<g id="edge4" class="edge"><title>0&#45;&gt;3</title>
<path fill="none" stroke="grey" stroke-width="2" d="M658.689,-287.876C636.974,-277.605 609.323,-264.527 586.954,-253.948"/>
<polygon fill="grey" stroke="grey" stroke-width="2" points="588.26,-250.693 577.724,-249.582 585.267,-257.021 588.26,-250.693"/>
</g>
<!-- 1 -->
<g id="node2" class="node"><title>1</title>
<path fill="none" stroke="#5682d8" stroke-width="2" d="M866.894,-900C866.894,-900 768.894,-900 768.894,-900 762.894,-900 756.894,-894 756.894,-888 756.894,-888 756.894,-876 756.894,-876 756.894,-870 762.894,-864 768.894,-864 768.894,-864 866.894,-864 866.894,-864 872.894,-864 878.894,-870 878.894,-876 878.894,-876 878.894,-888 878.894,-888 878.894,-894 872.894,-900 866.894,-900"/>
<text text-anchor="middle" x="817.894" y="-879.5" font-family="sans" font-size="10.00">bam_mark_duplicates</text>
</g>
<!-- 8 -->
<g id="node9" class="node"><title>8</title>
<path fill="none" stroke="#70d856" stroke-width="2" d="M1042.39,-684C1042.39,-684 885.394,-684 885.394,-684 879.394,-684 873.394,-678 873.394,-672 873.394,-672 873.394,-660 873.394,-660 873.394,-654 879.394,-648 885.394,-648 885.394,-648 1042.39,-648 1042.39,-648 1048.39,-648 1054.39,-654 1054.39,-660 1054.39,-660 1054.39,-672 1054.39,-672 1054.39,-678 1048.39,-684 1042.39,-684"/>
<text text-anchor="middle" x="963.894" y="-663.5" font-family="sans" font-size="10.00">accumulate_mark_duplicate_stats</text>
</g>
<!-- 1&#45;&gt;8 -->
<g id="edge15" class="edge"><title>1&#45;&gt;8</title>
<path fill="none" stroke="grey" stroke-width="2" d="M845.962,-863.943C859.608,-854.609 875.483,-842.084 886.894,-828 920.479,-786.549 943.72,-728.022 955.338,-694.142"/>
<polygon fill="grey" stroke="grey" stroke-width="2" points="958.721,-695.059 958.569,-684.465 952.082,-692.842 958.721,-695.059"/>
</g>
<!-- 30 -->
<g id="node31" class="node"><title>30</title>
<path fill="none" stroke="#d89c56" stroke-width="2" d="M865.894,-828C865.894,-828 761.894,-828 761.894,-828 755.894,-828 749.894,-822 749.894,-816 749.894,-816 749.894,-804 749.894,-804 749.894,-798 755.894,-792 761.894,-792 761.894,-792 865.894,-792 865.894,-792 871.894,-792 877.894,-798 877.894,-804 877.894,-804 877.894,-816 877.894,-816 877.894,-822 871.894,-828 865.894,-828"/>
<text text-anchor="middle" x="813.894" y="-807.5" font-family="sans" font-size="10.00">bam_proc_per_run_out</text>
</g>
<!-- 1&#45;&gt;30 -->
<g id="edge54" class="edge"><title>1&#45;&gt;30</title>
<path fill="none" stroke="grey" stroke-width="2" d="M816.905,-863.697C816.464,-855.983 815.935,-846.712 815.443,-838.112"/>
<polygon fill="grey" stroke="grey" stroke-width="2" points="818.936,-837.888 814.871,-828.104 811.947,-838.288 818.936,-837.888"/>
</g>
<!-- 2 -->
<g id="node3" class="node"><title>2</title>
<path fill="none" stroke="#ced856" stroke-width="2" d="M994.394,-1260C994.394,-1260 913.394,-1260 913.394,-1260 907.394,-1260 901.394,-1254 901.394,-1248 901.394,-1248 901.394,-1236 901.394,-1236 901.394,-1230 907.394,-1224 913.394,-1224 913.394,-1224 994.394,-1224 994.394,-1224 1000.39,-1224 1006.39,-1230 1006.39,-1236 1006.39,-1236 1006.39,-1248 1006.39,-1248 1006.39,-1254 1000.39,-1260 994.394,-1260"/>
<text text-anchor="middle" x="953.894" y="-1239.5" font-family="sans" font-size="10.00">preprocessing_out</text>
</g>
<!-- 5 -->
<g id="node6" class="node"><title>5</title>
<path fill="none" stroke="#d85656" stroke-width="2" d="M1026.39,-1188C1026.39,-1188 877.394,-1188 877.394,-1188 871.394,-1188 865.394,-1182 865.394,-1176 865.394,-1176 865.394,-1164 865.394,-1164 865.394,-1158 871.394,-1152 877.394,-1152 877.394,-1152 1026.39,-1152 1026.39,-1152 1032.39,-1152 1038.39,-1158 1038.39,-1164 1038.39,-1164 1038.39,-1176 1038.39,-1176 1038.39,-1182 1032.39,-1188 1026.39,-1188"/>
<text text-anchor="middle" x="951.894" y="-1167.5" font-family="sans" font-size="10.00">bwa_mem_map_trimmomatic_S</text>
</g>
<!-- 2&#45;&gt;5 -->
<g id="edge11" class="edge"><title>2&#45;&gt;5</title>
<path fill="none" stroke="grey" stroke-width="2" d="M953.399,-1223.7C953.179,-1215.98 952.914,-1206.71 952.668,-1198.11"/>
<polygon fill="grey" stroke="grey" stroke-width="2" points="956.167,-1198 952.382,-1188.1 949.17,-1198.2 956.167,-1198"/>
</g>
<!-- 18 -->
<g id="node19" class="node"><title>18</title>
<path fill="none" stroke="#56d892" stroke-width="2" d="M1098.89,-1188C1098.89,-1188 1068.89,-1188 1068.89,-1188 1062.89,-1188 1056.89,-1182 1056.89,-1176 1056.89,-1176 1056.89,-1164 1056.89,-1164 1056.89,-1158 1062.89,-1152 1068.89,-1152 1068.89,-1152 1098.89,-1152 1098.89,-1152 1104.89,-1152 1110.89,-1158 1110.89,-1164 1110.89,-1164 1110.89,-1176 1110.89,-1176 1110.89,-1182 1104.89,-1188 1098.89,-1188"/>
<text text-anchor="middle" x="1083.89" y="-1167.5" font-family="sans" font-size="10.00">fastqc</text>
</g>
<!-- 2&#45;&gt;18 -->
<g id="edge38" class="edge"><title>2&#45;&gt;18</title>
<path fill="none" stroke="grey" stroke-width="2" d="M985.695,-1223.88C1004.51,-1213.74 1028.41,-1200.88 1047.91,-1190.37"/>
<polygon fill="grey" stroke="grey" stroke-width="2" points="1049.67,-1193.4 1056.81,-1185.58 1046.35,-1187.24 1049.67,-1193.4"/>
</g>
<!-- 21 -->
<g id="node22" class="node"><title>21</title>
<path fill="none" stroke="#56d8b9" stroke-width="2" d="M835.394,-1188C835.394,-1188 766.394,-1188 766.394,-1188 760.394,-1188 754.394,-1182 754.394,-1176 754.394,-1176 754.394,-1164 754.394,-1164 754.394,-1158 760.394,-1152 766.394,-1152 766.394,-1152 835.394,-1152 835.394,-1152 841.394,-1152 847.394,-1158 847.394,-1164 847.394,-1164 847.394,-1176 847.394,-1176 847.394,-1182 841.394,-1188 835.394,-1188"/>
<text text-anchor="middle" x="800.894" y="-1167.5" font-family="sans" font-size="10.00">bwa_mem_map</text>
</g>
<!-- 2&#45;&gt;21 -->
<g id="edge42" class="edge"><title>2&#45;&gt;21</title>
<path fill="none" stroke="grey" stroke-width="2" d="M916.466,-1223.88C895.643,-1214.35 869.54,-1202.41 847.413,-1192.28"/>
<polygon fill="grey" stroke="grey" stroke-width="2" points="848.75,-1189.05 838.2,-1188.07 845.838,-1195.41 848.75,-1189.05"/>
</g>
<!-- 12 -->
<g id="node13" class="node"><title>12</title>
<path fill="none" stroke="#59d856" stroke-width="2" d="M598.894,-180C598.894,-180 494.894,-180 494.894,-180 488.894,-180 482.894,-174 482.894,-168 482.894,-168 482.894,-156 482.894,-156 482.894,-150 488.894,-144 494.894,-144 494.894,-144 598.894,-144 598.894,-144 604.894,-144 610.894,-150 610.894,-156 610.894,-156 610.894,-168 610.894,-168 610.894,-174 604.894,-180 598.894,-180"/>
<text text-anchor="middle" x="546.894" y="-159.5" font-family="sans" font-size="10.00">variant_refinement_out</text>
</g>
<!-- 3&#45;&gt;12 -->
<g id="edge19" class="edge"><title>3&#45;&gt;12</title>
<path fill="none" stroke="grey" stroke-width="2" d="M546.894,-215.697C546.894,-207.983 546.894,-198.712 546.894,-190.112"/>
<polygon fill="grey" stroke="grey" stroke-width="2" points="550.394,-190.104 546.894,-180.104 543.394,-190.104 550.394,-190.104"/>
</g>
<!-- 13 -->
<g id="node14" class="node"><title>13</title>
<path fill="none" stroke="#56d85b" stroke-width="2" d="M492.394,-108C492.394,-108 431.394,-108 431.394,-108 425.394,-108 419.394,-102 419.394,-96 419.394,-96 419.394,-84 419.394,-84 419.394,-78 425.394,-72 431.394,-72 431.394,-72 492.394,-72 492.394,-72 498.394,-72 504.394,-78 504.394,-84 504.394,-84 504.394,-96 504.394,-96 504.394,-102 498.394,-108 492.394,-108"/>
<text text-anchor="middle" x="461.894" y="-87.5" font-family="sans" font-size="10.00">bcftools_index</text>
</g>
<!-- 3&#45;&gt;13 -->
<g id="edge23" class="edge"><title>3&#45;&gt;13</title>
<path fill="none" stroke="grey" stroke-width="2" d="M516.255,-218.34C501.01,-209.419 483.772,-196.538 473.894,-180 462.8,-161.426 460.207,-136.838 460.159,-118.213"/>
<polygon fill="grey" stroke="grey" stroke-width="2" points="463.662,-118.1 460.38,-108.027 456.664,-117.949 463.662,-118.1"/>
</g>
<!-- 16 -->
<g id="node17" class="node"><title>16</title>
<path fill="none" stroke="#56d8c1" stroke-width="2" d="M561.894,-36C561.894,-36 531.894,-36 531.894,-36 525.894,-36 519.894,-30 519.894,-24 519.894,-24 519.894,-12 519.894,-12 519.894,-6 525.894,-0 531.894,-0 531.894,-0 561.894,-0 561.894,-0 567.894,-0 573.894,-6 573.894,-12 573.894,-12 573.894,-24 573.894,-24 573.894,-30 567.894,-36 561.894,-36"/>
<text text-anchor="middle" x="546.894" y="-15.5" font-family="sans" font-size="10.00">all</text>
</g>
<!-- 3&#45;&gt;16 -->
<g id="edge27" class="edge"><title>3&#45;&gt;16</title>
<path fill="none" stroke="grey" stroke-width="2" d="M577.693,-219.27C593.39,-210.487 611.003,-197.442 619.894,-180 627.16,-165.745 624.073,-159.444 619.894,-144 609.721,-106.407 585.114,-68.5219 567.276,-44.4743"/>
<polygon fill="grey" stroke="grey" stroke-width="2" points="569.882,-42.1184 561.049,-36.2668 564.305,-46.3491 569.882,-42.1184"/>
</g>
<!-- 4 -->
<g id="node5" class="node"><title>4</title>
<path fill="none" stroke="#80d856" stroke-width="2" d="M572.894,-540C572.894,-540 396.894,-540 396.894,-540 390.894,-540 384.894,-534 384.894,-528 384.894,-528 384.894,-516 384.894,-516 384.894,-510 390.894,-504 396.894,-504 396.894,-504 572.894,-504 572.894,-504 578.894,-504 584.894,-510 584.894,-516 584.894,-516 584.894,-528 584.894,-528 584.894,-534 578.894,-540 572.894,-540"/>
<text text-anchor="middle" x="484.894" y="-519.5" font-family="sans" font-size="10.00">gatk_GenotypeGVCFs_project_per_chr</text>
</g>
<!-- 34 -->
<g id="node35" class="node"><title>34</title>
<path fill="none" stroke="#568ad8" stroke-width="2" d="M554.394,-468C554.394,-468 415.394,-468 415.394,-468 409.394,-468 403.394,-462 403.394,-456 403.394,-456 403.394,-444 403.394,-444 403.394,-438 409.394,-432 415.394,-432 415.394,-432 554.394,-432 554.394,-432 560.394,-432 566.394,-438 566.394,-444 566.394,-444 566.394,-456 566.394,-456 566.394,-462 560.394,-468 554.394,-468"/>
<text text-anchor="middle" x="484.894" y="-447.5" font-family="sans" font-size="10.00">gatk_CombineVariants_project</text>
</g>
<!-- 4&#45;&gt;34 -->
<g id="edge62" class="edge"><title>4&#45;&gt;34</title>
<path fill="none" stroke="grey" stroke-width="2" d="M484.894,-503.697C484.894,-495.983 484.894,-486.712 484.894,-478.112"/>
<polygon fill="grey" stroke="grey" stroke-width="2" points="488.394,-478.104 484.894,-468.104 481.394,-478.104 488.394,-478.104"/>
</g>
<!-- 36 -->
<g id="node37" class="node"><title>36</title>
<path fill="none" stroke="#d87556" stroke-width="2" d="M845.894,-1116C845.894,-1116 789.894,-1116 789.894,-1116 783.894,-1116 777.894,-1110 777.894,-1104 777.894,-1104 777.894,-1092 777.894,-1092 777.894,-1086 783.894,-1080 789.894,-1080 789.894,-1080 845.894,-1080 845.894,-1080 851.894,-1080 857.894,-1086 857.894,-1092 857.894,-1092 857.894,-1104 857.894,-1104 857.894,-1110 851.894,-1116 845.894,-1116"/>
<text text-anchor="middle" x="817.894" y="-1095.5" font-family="sans" font-size="10.00">mapping_out</text>
</g>
<!-- 5&#45;&gt;36 -->
<g id="edge66" class="edge"><title>5&#45;&gt;36</title>
<path fill="none" stroke="grey" stroke-width="2" d="M919.114,-1151.88C901.269,-1142.55 878.997,-1130.92 859.891,-1120.94"/>
<polygon fill="grey" stroke="grey" stroke-width="2" points="861.284,-1117.72 850.8,-1116.19 858.043,-1123.92 861.284,-1117.72"/>
</g>
<!-- 6 -->
<g id="node7" class="node"><title>6</title>
<path fill="none" stroke="#d86e56" stroke-width="2" d="M325.394,-180C325.394,-180 256.394,-180 256.394,-180 250.394,-180 244.394,-174 244.394,-168 244.394,-168 244.394,-156 244.394,-156 244.394,-150 250.394,-144 256.394,-144 256.394,-144 325.394,-144 325.394,-144 331.394,-144 337.394,-150 337.394,-156 337.394,-156 337.394,-168 337.394,-168 337.394,-174 331.394,-180 325.394,-180"/>
<text text-anchor="middle" x="290.894" y="-159.5" font-family="sans" font-size="10.00">beagle_4_0_IBD</text>
</g>
<!-- 6&#45;&gt;13 -->
<g id="edge20" class="edge"><title>6&#45;&gt;13</title>
<path fill="none" stroke="grey" stroke-width="2" d="M332.725,-143.876C356.31,-134.222 385.954,-122.087 410.893,-111.878"/>
<polygon fill="grey" stroke="grey" stroke-width="2" points="412.27,-115.096 420.198,-108.068 409.618,-108.618 412.27,-115.096"/>
</g>
<!-- 6&#45;&gt;16 -->
<g id="edge30" class="edge"><title>6&#45;&gt;16</title>
<path fill="none" stroke="grey" stroke-width="2" d="M305.74,-143.978C323.829,-124.183 356.172,-91.7089 389.894,-72 427.882,-49.7978 476.518,-35.2068 509.52,-27.0574"/>
<polygon fill="grey" stroke="grey" stroke-width="2" points="510.739,-30.3647 519.652,-24.6364 509.113,-23.5564 510.739,-30.3647"/>
</g>
<!-- 7 -->
<g id="node8" class="node"><title>7</title>
<path fill="none" stroke="#a7d856" stroke-width="2" d="M747.394,-396C747.394,-396 650.394,-396 650.394,-396 644.394,-396 638.394,-390 638.394,-384 638.394,-384 638.394,-372 638.394,-372 638.394,-366 644.394,-360 650.394,-360 650.394,-360 747.394,-360 747.394,-360 753.394,-360 759.394,-366 759.394,-372 759.394,-372 759.394,-384 759.394,-384 759.394,-390 753.394,-396 747.394,-396"/>
<text text-anchor="middle" x="698.894" y="-375.5" font-family="sans" font-size="10.00">gatk_recalibrate_bam</text>
</g>
<!-- 20 -->
<g id="node21" class="node"><title>20</title>
<path fill="none" stroke="#56d8a2" stroke-width="2" d="M642.394,-756C642.394,-756 519.394,-756 519.394,-756 513.394,-756 507.394,-750 507.394,-744 507.394,-744 507.394,-732 507.394,-732 507.394,-726 513.394,-720 519.394,-720 519.394,-720 642.394,-720 642.394,-720 648.394,-720 654.394,-726 654.394,-732 654.394,-732 654.394,-744 654.394,-744 654.394,-750 648.394,-756 642.394,-756"/>
<text text-anchor="middle" x="580.894" y="-735.5" font-family="sans" font-size="10.00">bam_proc_per_sample_out</text>
</g>
<!-- 7&#45;&gt;20 -->
<g id="edge41" class="edge"><title>7&#45;&gt;20</title>
<path fill="none" stroke="grey" stroke-width="2" d="M668.843,-396.104C655.581,-405.134 640.973,-417.387 631.894,-432 610.549,-466.356 612.894,-480.553 612.894,-521 612.894,-595 612.894,-595 612.894,-595 612.894,-635.963 600.065,-681.982 590.652,-710.232"/>
<polygon fill="grey" stroke="grey" stroke-width="2" points="587.307,-709.199 587.369,-719.793 593.927,-711.472 587.307,-709.199"/>
</g>
<!-- 8&#45;&gt;16 -->
<g id="edge31" class="edge"><title>8&#45;&gt;16</title>
<path fill="none" stroke="grey" stroke-width="2" d="M982.092,-647.598C1006.25,-622.53 1045.89,-573.673 1045.89,-523 1045.89,-523 1045.89,-523 1045.89,-161 1045.89,-65.0301 700.132,-30.44 584.241,-21.5416"/>
<polygon fill="grey" stroke="grey" stroke-width="2" points="584.31,-18.0371 574.077,-20.7823 583.788,-25.0177 584.31,-18.0371"/>
</g>
<!-- 9 -->
<g id="node10" class="node"><title>9</title>
<path fill="none" stroke="#68d856" stroke-width="2" d="M302.394,-324C302.394,-324 267.394,-324 267.394,-324 261.394,-324 255.394,-318 255.394,-312 255.394,-312 255.394,-300 255.394,-300 255.394,-294 261.394,-288 267.394,-288 267.394,-288 302.394,-288 302.394,-288 308.394,-288 314.394,-294 314.394,-300 314.394,-300 314.394,-312 314.394,-312 314.394,-318 308.394,-324 302.394,-324"/>
<text text-anchor="middle" x="284.894" y="-303.5" font-family="sans" font-size="10.00">polymutt</text>
</g>
<!-- 9&#45;&gt;3 -->
<g id="edge7" class="edge"><title>9&#45;&gt;3</title>
<path fill="none" stroke="grey" stroke-width="2" d="M314.552,-291.096C317.345,-289.98 320.156,-288.927 322.894,-288 385.576,-266.775 460.896,-250.832 506.274,-242.219"/>
<polygon fill="grey" stroke="grey" stroke-width="2" points="507.127,-245.62 516.313,-240.341 505.839,-238.74 507.127,-245.62"/>
</g>
<!-- 10 -->
<g id="node11" class="node"><title>10</title>
<path fill="none" stroke="#61d856" stroke-width="2" d="M413.394,-324C413.394,-324 344.394,-324 344.394,-324 338.394,-324 332.394,-318 332.394,-312 332.394,-312 332.394,-300 332.394,-300 332.394,-294 338.394,-288 344.394,-288 344.394,-288 413.394,-288 413.394,-288 419.394,-288 425.394,-294 425.394,-300 425.394,-300 425.394,-312 425.394,-312 425.394,-318 419.394,-324 413.394,-324"/>
<text text-anchor="middle" x="378.894" y="-303.5" font-family="sans" font-size="10.00">fam_seq_MCMC</text>
</g>
<!-- 10&#45;&gt;3 -->
<g id="edge8" class="edge"><title>10&#45;&gt;3</title>
<path fill="none" stroke="grey" stroke-width="2" d="M419.991,-287.876C446.465,-276.845 480.711,-262.576 506.954,-251.642"/>
<polygon fill="grey" stroke="grey" stroke-width="2" points="508.347,-254.853 516.231,-247.776 505.654,-248.392 508.347,-254.853"/>
</g>
<!-- 11 -->
<g id="node12" class="node"><title>11</title>
<path fill="none" stroke="#d88556" stroke-width="2" d="M839.394,-756C839.394,-756 774.394,-756 774.394,-756 768.394,-756 762.394,-750 762.394,-744 762.394,-744 762.394,-732 762.394,-732 762.394,-726 768.394,-720 774.394,-720 774.394,-720 839.394,-720 839.394,-720 845.394,-720 851.394,-726 851.394,-732 851.394,-732 851.394,-744 851.394,-744 851.394,-750 845.394,-756 839.394,-756"/>
<text text-anchor="middle" x="806.894" y="-735.5" font-family="sans" font-size="10.00">sample_merge</text>
</g>
<!-- 31 -->
<g id="node32" class="node"><title>31</title>
<path fill="none" stroke="#d6d856" stroke-width="2" d="M805.894,-540C805.894,-540 727.894,-540 727.894,-540 721.894,-540 715.894,-534 715.894,-528 715.894,-528 715.894,-516 715.894,-516 715.894,-510 721.894,-504 727.894,-504 727.894,-504 805.894,-504 805.894,-504 811.894,-504 817.894,-510 817.894,-516 817.894,-516 817.894,-528 817.894,-528 817.894,-534 811.894,-540 805.894,-540"/>
<text text-anchor="middle" x="766.894" y="-519.5" font-family="sans" font-size="10.00">gatk_realign_bam</text>
</g>
<!-- 11&#45;&gt;31 -->
<g id="edge56" class="edge"><title>11&#45;&gt;31</title>
<path fill="none" stroke="grey" stroke-width="2" d="M814.353,-719.684C826.307,-689.215 846.336,-624.641 824.894,-576 819.907,-564.689 811.183,-554.744 801.992,-546.616"/>
<polygon fill="grey" stroke="grey" stroke-width="2" points="804.177,-543.882 794.233,-540.225 799.727,-549.285 804.177,-543.882"/>
</g>
<!-- 32 -->
<g id="node33" class="node"><title>32</title>
<path fill="none" stroke="#56d0d8" stroke-width="2" d="M803.894,-612C803.894,-612 729.894,-612 729.894,-612 723.894,-612 717.894,-606 717.894,-600 717.894,-600 717.894,-588 717.894,-588 717.894,-582 723.894,-576 729.894,-576 729.894,-576 803.894,-576 803.894,-576 809.894,-576 815.894,-582 815.894,-588 815.894,-588 815.894,-600 815.894,-600 815.894,-606 809.894,-612 803.894,-612"/>
<text text-anchor="middle" x="766.894" y="-591.5" font-family="sans" font-size="10.00">gatk_realign_info</text>
</g>
<!-- 11&#45;&gt;32 -->
<g id="edge57" class="edge"><title>11&#45;&gt;32</title>
<path fill="none" stroke="grey" stroke-width="2" d="M802.069,-719.871C795.222,-695.564 782.617,-650.819 774.503,-622.013"/>
<polygon fill="grey" stroke="grey" stroke-width="2" points="777.816,-620.866 771.736,-612.189 771.078,-622.764 777.816,-620.866"/>
</g>
<!-- 33 -->
<g id="node34" class="node"><title>33</title>
<path fill="none" stroke="#569ad8" stroke-width="2" d="M705.394,-684C705.394,-684 660.394,-684 660.394,-684 654.394,-684 648.394,-678 648.394,-672 648.394,-672 648.394,-660 648.394,-660 648.394,-654 654.394,-648 660.394,-648 660.394,-648 705.394,-648 705.394,-648 711.394,-648 717.394,-654 717.394,-660 717.394,-660 717.394,-672 717.394,-672 717.394,-678 711.394,-684 705.394,-684"/>
<text text-anchor="middle" x="682.894" y="-663.5" font-family="sans" font-size="10.00">bam_index</text>
</g>
<!-- 11&#45;&gt;33 -->
<g id="edge60" class="edge"><title>11&#45;&gt;33</title>
<path fill="none" stroke="grey" stroke-width="2" d="M776.56,-719.876C760.197,-710.639 739.811,-699.131 722.24,-689.212"/>
<polygon fill="grey" stroke="grey" stroke-width="2" points="723.773,-686.058 713.344,-684.19 720.332,-692.154 723.773,-686.058"/>
</g>
<!-- 12&#45;&gt;13 -->
<g id="edge21" class="edge"><title>12&#45;&gt;13</title>
<path fill="none" stroke="grey" stroke-width="2" d="M525.883,-143.697C515.178,-134.881 502.004,-124.032 490.398,-114.474"/>
<polygon fill="grey" stroke="grey" stroke-width="2" points="492.608,-111.76 482.663,-108.104 488.158,-117.163 492.608,-111.76"/>
</g>
<!-- 12&#45;&gt;16 -->
<g id="edge32" class="edge"><title>12&#45;&gt;16</title>
<path fill="none" stroke="grey" stroke-width="2" d="M546.894,-143.871C546.894,-119.67 546.894,-75.2108 546.894,-46.3932"/>
<polygon fill="grey" stroke="grey" stroke-width="2" points="550.394,-46.1892 546.894,-36.1893 543.394,-46.1893 550.394,-46.1892"/>
</g>
<!-- 13&#45;&gt;16 -->
<g id="edge33" class="edge"><title>13&#45;&gt;16</title>
<path fill="none" stroke="grey" stroke-width="2" d="M482.905,-71.6966C493.61,-62.8807 506.783,-52.0321 518.389,-42.4742"/>
<polygon fill="grey" stroke="grey" stroke-width="2" points="520.63,-45.1632 526.124,-36.1043 516.18,-39.7597 520.63,-45.1632"/>
</g>
<!-- 14 -->
<g id="node15" class="node"><title>14</title>
<path fill="none" stroke="#56d89a" stroke-width="2" d="M525.894,-396C525.894,-396 443.894,-396 443.894,-396 437.894,-396 431.894,-390 431.894,-384 431.894,-384 431.894,-372 431.894,-372 431.894,-366 437.894,-360 443.894,-360 443.894,-360 525.894,-360 525.894,-360 531.894,-360 537.894,-366 537.894,-372 537.894,-372 537.894,-384 537.894,-384 537.894,-390 531.894,-396 525.894,-396"/>
<text text-anchor="middle" x="484.894" y="-375.5" font-family="sans" font-size="10.00">variant_calling_out</text>
</g>
<!-- 14&#45;&gt;0 -->
<g id="edge1" class="edge"><title>14&#45;&gt;0</title>
<path fill="none" stroke="grey" stroke-width="2" d="M537.898,-360.017C567.361,-350.493 604.895,-338.227 646.614,-324.059"/>
<polygon fill="grey" stroke="grey" stroke-width="2" points="647.811,-327.349 656.149,-320.813 645.555,-320.723 647.811,-327.349"/>
</g>
<!-- 14&#45;&gt;6 -->
<g id="edge12" class="edge"><title>14&#45;&gt;6</title>
<path fill="none" stroke="grey" stroke-width="2" d="M431.88,-373.602C365.009,-368.083 255.721,-354.542 230.894,-324 197.624,-283.071 238.94,-221.871 267.679,-187.93"/>
<polygon fill="grey" stroke="grey" stroke-width="2" points="270.379,-190.158 274.303,-180.317 265.099,-185.563 270.379,-190.158"/>
</g>
<!-- 14&#45;&gt;9 -->
<g id="edge16" class="edge"><title>14&#45;&gt;9</title>
<path fill="none" stroke="grey" stroke-width="2" d="M431.874,-361.19C402.3,-352.02 364.69,-339.78 324.162,-324.33"/>
<polygon fill="grey" stroke="grey" stroke-width="2" points="325.23,-320.991 314.641,-320.661 322.713,-327.523 325.23,-320.991"/>
</g>
<!-- 14&#45;&gt;10 -->
<g id="edge17" class="edge"><title>14&#45;&gt;10</title>
<path fill="none" stroke="grey" stroke-width="2" d="M458.963,-359.876C445.232,-350.808 428.187,-339.552 413.358,-329.759"/>
<polygon fill="grey" stroke="grey" stroke-width="2" points="415.197,-326.78 404.924,-324.19 411.34,-332.621 415.197,-326.78"/>
</g>
<!-- 14&#45;&gt;16 -->
<g id="edge34" class="edge"><title>14&#45;&gt;16</title>
<path fill="none" stroke="grey" stroke-width="2" d="M537.903,-369.195C608.832,-358.281 727.433,-338.208 741.894,-324 770.814,-295.587 761.894,-275.542 761.894,-235 761.894,-235 761.894,-235 761.894,-161 761.894,-76.85 645.798,-39.6953 584.229,-25.9078"/>
<polygon fill="grey" stroke="grey" stroke-width="2" points="584.635,-22.4155 574.124,-23.745 583.17,-29.2605 584.635,-22.4155"/>
</g>
<!-- 19 -->
<g id="node20" class="node"><title>19</title>
<path fill="none" stroke="#56d8a9" stroke-width="2" d="M507.894,-324C507.894,-324 455.894,-324 455.894,-324 449.894,-324 443.894,-318 443.894,-312 443.894,-312 443.894,-300 443.894,-300 443.894,-294 449.894,-288 455.894,-288 455.894,-288 507.894,-288 507.894,-288 513.894,-288 519.894,-294 519.894,-300 519.894,-300 519.894,-312 519.894,-312 519.894,-318 513.894,-324 507.894,-324"/>
<text text-anchor="middle" x="481.894" y="-303.5" font-family="sans" font-size="10.00">fam_seq_ES</text>
</g>
<!-- 14&#45;&gt;19 -->
<g id="edge40" class="edge"><title>14&#45;&gt;19</title>
<path fill="none" stroke="grey" stroke-width="2" d="M484.152,-359.697C483.822,-351.983 483.424,-342.712 483.056,-334.112"/>
<polygon fill="grey" stroke="grey" stroke-width="2" points="486.552,-333.945 482.627,-324.104 479.558,-334.245 486.552,-333.945"/>
</g>
<!-- 24 -->
<g id="node25" class="node"><title>24</title>
<path fill="none" stroke="#56d8c9" stroke-width="2" d="M625.894,-324C625.894,-324 549.894,-324 549.894,-324 543.894,-324 537.894,-318 537.894,-312 537.894,-312 537.894,-300 537.894,-300 537.894,-294 543.894,-288 549.894,-288 549.894,-288 625.894,-288 625.894,-288 631.894,-288 637.894,-294 637.894,-300 637.894,-300 637.894,-312 637.894,-312 637.894,-318 631.894,-324 625.894,-324"/>
<text text-anchor="middle" x="587.894" y="-303.5" font-family="sans" font-size="10.00">polymutt_denovo</text>
</g>
<!-- 14&#45;&gt;24 -->
<g id="edge45" class="edge"><title>14&#45;&gt;24</title>
<path fill="none" stroke="grey" stroke-width="2" d="M510.09,-359.876C523.308,-350.893 539.686,-339.763 554.001,-330.034"/>
<polygon fill="grey" stroke="grey" stroke-width="2" points="556.297,-332.705 562.6,-324.19 552.362,-326.916 556.297,-332.705"/>
</g>
<!-- 26 -->
<g id="node27" class="node"><title>26</title>
<path fill="none" stroke="#d8bc56" stroke-width="2" d="M414.394,-180C414.394,-180 367.394,-180 367.394,-180 361.394,-180 355.394,-174 355.394,-168 355.394,-168 355.394,-156 355.394,-156 355.394,-150 361.394,-144 367.394,-144 367.394,-144 414.394,-144 414.394,-144 420.394,-144 426.394,-150 426.394,-156 426.394,-156 426.394,-168 426.394,-168 426.394,-174 420.394,-180 414.394,-180"/>
<text text-anchor="middle" x="390.894" y="-159.5" font-family="sans" font-size="10.00">beagle_4_0</text>
</g>
<!-- 14&#45;&gt;26 -->
<g id="edge47" class="edge"><title>14&#45;&gt;26</title>
<path fill="none" stroke="grey" stroke-width="2" d="M431.698,-372.806C368.505,-366.591 268.738,-352.465 245.894,-324 204.188,-272.033 289.624,-214.897 346.218,-184.627"/>
<polygon fill="grey" stroke="grey" stroke-width="2" points="348.143,-187.57 355.375,-179.827 344.893,-181.37 348.143,-187.57"/>
</g>
<!-- 29 -->
<g id="node30" class="node"><title>29</title>
<path fill="none" stroke="#d86656" stroke-width="2" d="M949.394,-324C949.394,-324 802.394,-324 802.394,-324 796.394,-324 790.394,-318 790.394,-312 790.394,-312 790.394,-300 790.394,-300 790.394,-294 796.394,-288 802.394,-288 802.394,-288 949.394,-288 949.394,-288 955.394,-288 961.394,-294 961.394,-300 961.394,-300 961.394,-312 961.394,-312 961.394,-318 955.394,-324 949.394,-324"/>
<text text-anchor="middle" x="875.894" y="-303.5" font-family="sans" font-size="10.00">gatk_apply_variant_recalibration</text>
</g>
<!-- 14&#45;&gt;29 -->
<g id="edge52" class="edge"><title>14&#45;&gt;29</title>
<path fill="none" stroke="grey" stroke-width="2" d="M538.033,-367.487C600.08,-356.378 703.913,-337.789 780.127,-324.145"/>
<polygon fill="grey" stroke="grey" stroke-width="2" points="780.992,-327.546 790.219,-322.338 779.759,-320.655 780.992,-327.546"/>
</g>
<!-- 35 -->
<g id="node36" class="node"><title>35</title>
<path fill="none" stroke="#56a2d8" stroke-width="2" d="M955.894,-252C955.894,-252 839.894,-252 839.894,-252 833.894,-252 827.894,-246 827.894,-240 827.894,-240 827.894,-228 827.894,-228 827.894,-222 833.894,-216 839.894,-216 839.894,-216 955.894,-216 955.894,-216 961.894,-216 967.894,-222 967.894,-228 967.894,-228 967.894,-240 967.894,-240 967.894,-246 961.894,-252 955.894,-252"/>
<text text-anchor="middle" x="897.894" y="-231.5" font-family="sans" font-size="10.00">gatk_variant_recalibration</text>
</g>
<!-- 14&#45;&gt;35 -->
<g id="edge63" class="edge"><title>14&#45;&gt;35</title>
<path fill="none" stroke="grey" stroke-width="2" d="M538.209,-370.476C565.346,-367.214 598.863,-363.274 628.894,-360 668.857,-355.643 961.92,-353.806 988.894,-324 999.63,-312.137 996.868,-301.872 988.894,-288 981.417,-274.993 969.383,-264.878 956.481,-257.139"/>
<polygon fill="grey" stroke="grey" stroke-width="2" points="957.902,-253.925 947.456,-252.154 954.517,-260.053 957.902,-253.925"/>
</g>
<!-- 15 -->
<g id="node16" class="node"><title>15</title>
<path fill="none" stroke="#56d87b" stroke-width="2" d="M148.394,-252C148.394,-252 41.3938,-252 41.3938,-252 35.3938,-252 29.3938,-246 29.3938,-240 29.3938,-240 29.3938,-228 29.3938,-228 29.3938,-222 35.3938,-216 41.3938,-216 41.3938,-216 148.394,-216 148.394,-216 154.394,-216 160.394,-222 160.394,-228 160.394,-228 160.394,-240 160.394,-240 160.394,-246 154.394,-252 148.394,-252"/>
<text text-anchor="middle" x="94.8938" y="-231.5" font-family="sans" font-size="10.00">picard_BedToIntervalList</text>
</g>
<!-- 27 -->
<g id="node28" class="node"><title>27</title>
<path fill="none" stroke="#56d8d8" stroke-width="2" d="M157.394,-180C157.394,-180 38.3938,-180 38.3938,-180 32.3938,-180 26.3938,-174 26.3938,-168 26.3938,-168 26.3938,-156 26.3938,-156 26.3938,-150 32.3938,-144 38.3938,-144 38.3938,-144 157.394,-144 157.394,-144 163.394,-144 169.394,-150 169.394,-156 169.394,-156 169.394,-168 169.394,-168 169.394,-174 163.394,-180 157.394,-180"/>
<text text-anchor="middle" x="97.8938" y="-159.5" font-family="sans" font-size="10.00">picard_CalculateHsMetrics</text>
</g>
<!-- 15&#45;&gt;27 -->
<g id="edge48" class="edge"><title>15&#45;&gt;27</title>
<path fill="none" stroke="grey" stroke-width="2" d="M95.6354,-215.697C95.966,-207.983 96.3633,-198.712 96.7318,-190.112"/>
<polygon fill="grey" stroke="grey" stroke-width="2" points="100.229,-190.245 97.1608,-180.104 93.2357,-189.945 100.229,-190.245"/>
</g>
<!-- 17 -->
<g id="node18" class="node"><title>17</title>
<path fill="none" stroke="#56d88a" stroke-width="2" d="M1043.39,-1404C1043.39,-1404 948.394,-1404 948.394,-1404 942.394,-1404 936.394,-1398 936.394,-1392 936.394,-1392 936.394,-1380 936.394,-1380 936.394,-1374 942.394,-1368 948.394,-1368 948.394,-1368 1043.39,-1368 1043.39,-1368 1049.39,-1368 1055.39,-1374 1055.39,-1380 1055.39,-1380 1055.39,-1392 1055.39,-1392 1055.39,-1398 1049.39,-1404 1043.39,-1404"/>
<text text-anchor="middle" x="995.894" y="-1383.5" font-family="sans" font-size="10.00">cutadapt_Illumina_PE</text>
</g>
<!-- 17&#45;&gt;18 -->
<g id="edge37" class="edge"><title>17&#45;&gt;18</title>
<path fill="none" stroke="grey" stroke-width="2" d="M1006.66,-1367.72C1012.75,-1357.55 1020.25,-1344.3 1025.89,-1332 1046.92,-1286.2 1065.55,-1230.4 1075.73,-1197.97"/>
<polygon fill="grey" stroke="grey" stroke-width="2" points="1079.1,-1198.89 1078.72,-1188.3 1072.42,-1196.81 1079.1,-1198.89"/>
</g>
<!-- 22 -->
<g id="node23" class="node"><title>22</title>
<path fill="none" stroke="#d8ac56" stroke-width="2" d="M1004.39,-1332C1004.39,-1332 905.394,-1332 905.394,-1332 899.394,-1332 893.394,-1326 893.394,-1320 893.394,-1320 893.394,-1308 893.394,-1308 893.394,-1302 899.394,-1296 905.394,-1296 905.394,-1296 1004.39,-1296 1004.39,-1296 1010.39,-1296 1016.39,-1302 1016.39,-1308 1016.39,-1308 1016.39,-1320 1016.39,-1320 1016.39,-1326 1010.39,-1332 1004.39,-1332"/>
<text text-anchor="middle" x="954.894" y="-1311.5" font-family="sans" font-size="10.00">trimmomatic_Qual_PE</text>
</g>
<!-- 17&#45;&gt;22 -->
<g id="edge43" class="edge"><title>17&#45;&gt;22</title>
<path fill="none" stroke="grey" stroke-width="2" d="M985.759,-1367.7C981.042,-1359.64 975.332,-1349.89 970.112,-1340.98"/>
<polygon fill="grey" stroke="grey" stroke-width="2" points="972.986,-1338.96 964.912,-1332.1 966.946,-1342.5 972.986,-1338.96"/>
</g>
<!-- 18&#45;&gt;16 -->
<g id="edge35" class="edge"><title>18&#45;&gt;16</title>
<path fill="none" stroke="grey" stroke-width="2" d="M1083.89,-1151.95C1083.89,-1125.29 1083.89,-1072.11 1083.89,-1027 1083.89,-1027 1083.89,-1027 1083.89,-161 1083.89,-99.485 1034.3,-96.5429 977.894,-72 907.324,-41.2948 675.181,-25.8555 584.068,-20.8621"/>
<polygon fill="grey" stroke="grey" stroke-width="2" points="584.1,-17.3589 573.927,-20.3178 583.725,-24.3489 584.1,-17.3589"/>
</g>
<!-- 19&#45;&gt;3 -->
<g id="edge9" class="edge"><title>19&#45;&gt;3</title>
<path fill="none" stroke="grey" stroke-width="2" d="M497.961,-287.697C505.833,-279.22 515.449,-268.864 524.067,-259.583"/>
<polygon fill="grey" stroke="grey" stroke-width="2" points="526.771,-261.814 531.011,-252.104 521.642,-257.051 526.771,-261.814"/>
</g>
<!-- 20&#45;&gt;27 -->
<g id="edge49" class="edge"><title>20&#45;&gt;27</title>
<path fill="none" stroke="grey" stroke-width="2" d="M507.142,-734.342C350.926,-726.703 0.893804,-698.085 0.893804,-595 0.893804,-595 0.893804,-595 0.893804,-305 0.893804,-264.553 -2.68141,-249.561 19.8938,-216 28.2093,-203.638 40.469,-193.368 52.818,-185.264"/>
<polygon fill="grey" stroke="grey" stroke-width="2" points="54.6676,-188.235 61.3342,-180.001 50.9875,-182.281 54.6676,-188.235"/>
</g>
<!-- 20&#45;&gt;33 -->
<g id="edge61" class="edge"><title>20&#45;&gt;33</title>
<path fill="none" stroke="grey" stroke-width="2" d="M605.846,-719.876C618.935,-710.893 635.154,-699.763 649.33,-690.034"/>
<polygon fill="grey" stroke="grey" stroke-width="2" points="651.581,-692.734 657.846,-684.19 647.62,-686.962 651.581,-692.734"/>
</g>
<!-- 38 -->
<g id="node39" class="node"><title>38</title>
<path fill="none" stroke="#566bd8" stroke-width="2" d="M572.394,-612C572.394,-612 475.394,-612 475.394,-612 469.394,-612 463.394,-606 463.394,-600 463.394,-600 463.394,-588 463.394,-588 463.394,-582 469.394,-576 475.394,-576 475.394,-576 572.394,-576 572.394,-576 578.394,-576 584.394,-582 584.394,-588 584.394,-588 584.394,-600 584.394,-600 584.394,-606 578.394,-612 572.394,-612"/>
<text text-anchor="middle" x="523.894" y="-591.5" font-family="sans" font-size="10.00">gatk_haplotype_caller</text>
</g>
<!-- 20&#45;&gt;38 -->
<g id="edge70" class="edge"><title>20&#45;&gt;38</title>
<path fill="none" stroke="grey" stroke-width="2" d="M574.018,-719.871C564.218,-695.457 546.142,-650.426 534.585,-621.635"/>
<polygon fill="grey" stroke="grey" stroke-width="2" points="537.767,-620.166 530.794,-612.189 531.271,-622.773 537.767,-620.166"/>
</g>
<!-- 21&#45;&gt;36 -->
<g id="edge65" class="edge"><title>21&#45;&gt;36</title>
<path fill="none" stroke="grey" stroke-width="2" d="M805.096,-1151.7C806.99,-1143.9 809.27,-1134.51 811.378,-1125.83"/>
<polygon fill="grey" stroke="grey" stroke-width="2" points="814.781,-1126.65 813.74,-1116.1 807.979,-1125 814.781,-1126.65"/>
</g>
<!-- 22&#45;&gt;2 -->
<g id="edge3" class="edge"><title>22&#45;&gt;2</title>
<path fill="none" stroke="grey" stroke-width="2" d="M954.647,-1295.7C954.536,-1287.98 954.404,-1278.71 954.281,-1270.11"/>
<polygon fill="grey" stroke="grey" stroke-width="2" points="957.781,-1270.05 954.138,-1260.1 950.781,-1270.15 957.781,-1270.05"/>
</g>
<!-- 23 -->
<g id="node24" class="node"><title>23</title>
<path fill="none" stroke="#56d882" stroke-width="2" d="M836.894,-1044C836.894,-1044 798.894,-1044 798.894,-1044 792.894,-1044 786.894,-1038 786.894,-1032 786.894,-1032 786.894,-1020 786.894,-1020 786.894,-1014 792.894,-1008 798.894,-1008 798.894,-1008 836.894,-1008 836.894,-1008 842.894,-1008 848.894,-1014 848.894,-1020 848.894,-1020 848.894,-1032 848.894,-1032 848.894,-1038 842.894,-1044 836.894,-1044"/>
<text text-anchor="middle" x="817.894" y="-1023.5" font-family="sans" font-size="10.00">bam_sort</text>
</g>
<!-- 25 -->
<g id="node26" class="node"><title>25</title>
<path fill="none" stroke="#d8b456" stroke-width="2" d="M872.394,-972C872.394,-972 763.394,-972 763.394,-972 757.394,-972 751.394,-966 751.394,-960 751.394,-960 751.394,-948 751.394,-948 751.394,-942 757.394,-936 763.394,-936 763.394,-936 872.394,-936 872.394,-936 878.394,-936 884.394,-942 884.394,-948 884.394,-948 884.394,-960 884.394,-960 884.394,-966 878.394,-972 872.394,-972"/>
<text text-anchor="middle" x="817.894" y="-951.5" font-family="sans" font-size="10.00">merge_trimmomatic_PE</text>
</g>
<!-- 23&#45;&gt;25 -->
<g id="edge46" class="edge"><title>23&#45;&gt;25</title>
<path fill="none" stroke="grey" stroke-width="2" d="M817.894,-1007.7C817.894,-999.983 817.894,-990.712 817.894,-982.112"/>
<polygon fill="grey" stroke="grey" stroke-width="2" points="821.394,-982.104 817.894,-972.104 814.394,-982.104 821.394,-982.104"/>
</g>
<!-- 24&#45;&gt;3 -->
<g id="edge5" class="edge"><title>24&#45;&gt;3</title>
<path fill="none" stroke="grey" stroke-width="2" d="M577.759,-287.697C573.042,-279.644 567.332,-269.894 562.112,-260.982"/>
<polygon fill="grey" stroke="grey" stroke-width="2" points="564.986,-258.964 556.912,-252.104 558.946,-262.502 564.986,-258.964"/>
</g>
<!-- 25&#45;&gt;1 -->
<g id="edge2" class="edge"><title>25&#45;&gt;1</title>
<path fill="none" stroke="grey" stroke-width="2" d="M817.894,-935.697C817.894,-927.983 817.894,-918.712 817.894,-910.112"/>
<polygon fill="grey" stroke="grey" stroke-width="2" points="821.394,-910.104 817.894,-900.104 814.394,-910.104 821.394,-910.104"/>
</g>
<!-- 26&#45;&gt;13 -->
<g id="edge22" class="edge"><title>26&#45;&gt;13</title>
<path fill="none" stroke="grey" stroke-width="2" d="M408.444,-143.697C417.128,-135.135 427.757,-124.656 437.242,-115.304"/>
<polygon fill="grey" stroke="grey" stroke-width="2" points="439.881,-117.617 444.545,-108.104 434.967,-112.633 439.881,-117.617"/>
</g>
<!-- 26&#45;&gt;16 -->
<g id="edge25" class="edge"><title>26&#45;&gt;16</title>
<path fill="none" stroke="grey" stroke-width="2" d="M389.981,-143.841C389.872,-124.216 392.673,-92.1985 409.894,-72 435.016,-42.5339 478.532,-29.3768 509.784,-23.5482"/>
<polygon fill="grey" stroke="grey" stroke-width="2" points="510.594,-26.9609 519.869,-21.8395 509.425,-20.0593 510.594,-26.9609"/>
</g>
<!-- 27&#45;&gt;16 -->
<g id="edge26" class="edge"><title>27&#45;&gt;16</title>
<path fill="none" stroke="grey" stroke-width="2" d="M101.098,-143.761C105.908,-123.116 117.101,-89.1755 140.894,-72 199.463,-29.7199 420.928,-21.1675 509.729,-19.4381"/>
<polygon fill="grey" stroke="grey" stroke-width="2" points="509.944,-22.9349 519.88,-19.2592 509.82,-15.936 509.944,-22.9349"/>
</g>
<!-- 28 -->
<g id="node29" class="node"><title>28</title>
<path fill="none" stroke="#56c9d8" stroke-width="2" d="M297.894,-108C297.894,-108 161.894,-108 161.894,-108 155.894,-108 149.894,-102 149.894,-96 149.894,-96 149.894,-84 149.894,-84 149.894,-78 155.894,-72 161.894,-72 161.894,-72 297.894,-72 297.894,-72 303.894,-72 309.894,-78 309.894,-84 309.894,-84 309.894,-96 309.894,-96 309.894,-102 303.894,-108 297.894,-108"/>
<text text-anchor="middle" x="229.894" y="-87.5" font-family="sans" font-size="10.00">accumulate_hs_metrics_stats</text>
</g>
<!-- 27&#45;&gt;28 -->
<g id="edge50" class="edge"><title>27&#45;&gt;28</title>
<path fill="none" stroke="grey" stroke-width="2" d="M130.185,-143.876C147.763,-134.554 169.703,-122.919 188.523,-112.939"/>
<polygon fill="grey" stroke="grey" stroke-width="2" points="190.284,-115.967 197.479,-108.19 187.004,-109.783 190.284,-115.967"/>
</g>
<!-- 28&#45;&gt;16 -->
<g id="edge28" class="edge"><title>28&#45;&gt;16</title>
<path fill="none" stroke="grey" stroke-width="2" d="M307.035,-71.9656C371.368,-57.7597 460.234,-38.1362 509.753,-27.2015"/>
<polygon fill="grey" stroke="grey" stroke-width="2" points="510.689,-30.579 519.7,-25.005 509.18,-23.7437 510.689,-30.579"/>
</g>
<!-- 29&#45;&gt;3 -->
<g id="edge6" class="edge"><title>29&#45;&gt;3</title>
<path fill="none" stroke="grey" stroke-width="2" d="M795.832,-287.966C729.855,-273.928 639.014,-254.6 587.283,-243.593"/>
<polygon fill="grey" stroke="grey" stroke-width="2" points="587.987,-240.165 577.477,-241.507 586.53,-247.012 587.987,-240.165"/>
</g>
<!-- 29&#45;&gt;16 -->
<g id="edge29" class="edge"><title>29&#45;&gt;16</title>
<path fill="none" stroke="grey" stroke-width="2" d="M851.644,-287.877C840.1,-278.527 827.065,-266.006 818.894,-252 777.447,-180.955 834.259,-129.955 775.894,-72 749.179,-45.4726 642.008,-29.6517 584.24,-22.8845"/>
<polygon fill="grey" stroke="grey" stroke-width="2" points="584.39,-19.3791 574.059,-21.7258 583.599,-26.3342 584.39,-19.3791"/>
</g>
<!-- 29&#45;&gt;29 -->
<g id="edge53" class="edge"><title>29&#45;&gt;29</title>
<path fill="none" stroke="grey" stroke-width="2" d="M961.557,-317.756C972.314,-315.684 979.394,-311.766 979.394,-306 979.394,-302.216 976.345,-299.228 971.209,-297.035"/>
<polygon fill="grey" stroke="grey" stroke-width="2" points="972.136,-293.66 961.557,-294.244 970.191,-300.384 972.136,-293.66"/>
</g>
<!-- 29&#45;&gt;35 -->
<g id="edge64" class="edge"><title>29&#45;&gt;35</title>
<path fill="none" stroke="grey" stroke-width="2" d="M875.416,-287.697C877.081,-279.813 879.851,-270.304 882.979,-261.546"/>
<polygon fill="grey" stroke="grey" stroke-width="2" points="886.288,-262.694 886.623,-252.104 879.757,-260.173 886.288,-262.694"/>
</g>
<!-- 30&#45;&gt;11 -->
<g id="edge18" class="edge"><title>30&#45;&gt;11</title>
<path fill="none" stroke="grey" stroke-width="2" d="M812.163,-791.697C811.392,-783.983 810.465,-774.712 809.605,-766.112"/>
<polygon fill="grey" stroke="grey" stroke-width="2" points="813.082,-765.706 808.604,-756.104 806.117,-766.403 813.082,-765.706"/>
</g>
<!-- 31&#45;&gt;7 -->
<g id="edge14" class="edge"><title>31&#45;&gt;7</title>
<path fill="none" stroke="grey" stroke-width="2" d="M770.864,-503.933C774.298,-485.244 777.13,-454.887 765.894,-432 760.066,-420.129 750.17,-410.098 739.746,-402.065"/>
<polygon fill="grey" stroke="grey" stroke-width="2" points="741.512,-399.025 731.342,-396.054 737.44,-404.718 741.512,-399.025"/>
</g>
<!-- 31&#45;&gt;33 -->
<g id="edge59" class="edge"><title>31&#45;&gt;33</title>
<path fill="none" stroke="grey" stroke-width="2" d="M742.509,-540.219C730.837,-549.595 717.551,-562.109 708.894,-576 697.096,-594.931 690.452,-619.445 686.839,-637.951"/>
<polygon fill="grey" stroke="grey" stroke-width="2" points="683.393,-637.344 685.089,-647.802 690.285,-638.569 683.393,-637.344"/>
</g>
<!-- 37 -->
<g id="node38" class="node"><title>37</title>
<path fill="none" stroke="#5673d8" stroke-width="2" d="M744.894,-468C744.894,-468 652.894,-468 652.894,-468 646.894,-468 640.894,-462 640.894,-456 640.894,-456 640.894,-444 640.894,-444 640.894,-438 646.894,-432 652.894,-432 652.894,-432 744.894,-432 744.894,-432 750.894,-432 756.894,-438 756.894,-444 756.894,-444 756.894,-456 756.894,-456 756.894,-462 750.894,-468 744.894,-468"/>
<text text-anchor="middle" x="698.894" y="-447.5" font-family="sans" font-size="10.00">gatk_recalibrate_info</text>
</g>
<!-- 31&#45;&gt;37 -->
<g id="edge68" class="edge"><title>31&#45;&gt;37</title>
<path fill="none" stroke="grey" stroke-width="2" d="M750.085,-503.697C741.768,-495.135 731.588,-484.656 722.504,-475.304"/>
<polygon fill="grey" stroke="grey" stroke-width="2" points="724.988,-472.838 715.509,-468.104 719.967,-477.716 724.988,-472.838"/>
</g>
<!-- 32&#45;&gt;31 -->
<g id="edge55" class="edge"><title>32&#45;&gt;31</title>
<path fill="none" stroke="grey" stroke-width="2" d="M766.894,-575.697C766.894,-567.983 766.894,-558.712 766.894,-550.112"/>
<polygon fill="grey" stroke="grey" stroke-width="2" points="770.394,-550.104 766.894,-540.104 763.394,-550.104 770.394,-550.104"/>
</g>
<!-- 33&#45;&gt;32 -->
<g id="edge58" class="edge"><title>33&#45;&gt;32</title>
<path fill="none" stroke="grey" stroke-width="2" d="M703.658,-647.697C714.135,-638.965 727.005,-628.24 738.393,-618.75"/>
<polygon fill="grey" stroke="grey" stroke-width="2" points="740.927,-621.195 746.369,-612.104 736.446,-615.817 740.927,-621.195"/>
</g>
<!-- 33&#45;&gt;37 -->
<g id="edge67" class="edge"><title>33&#45;&gt;37</title>
<path fill="none" stroke="grey" stroke-width="2" d="M684.176,-647.849C686.944,-610.832 693.497,-523.181 696.846,-478.386"/>
<polygon fill="grey" stroke="grey" stroke-width="2" points="700.35,-478.466 697.605,-468.232 693.369,-477.944 700.35,-478.466"/>
</g>
<!-- 33&#45;&gt;38 -->
<g id="edge69" class="edge"><title>33&#45;&gt;38</title>
<path fill="none" stroke="grey" stroke-width="2" d="M648.393,-649.811C625.96,-639.935 596.398,-626.92 571.71,-616.051"/>
<polygon fill="grey" stroke="grey" stroke-width="2" points="573.074,-612.828 562.512,-612.002 570.254,-619.234 573.074,-612.828"/>
</g>
<!-- 34&#45;&gt;14 -->
<g id="edge24" class="edge"><title>34&#45;&gt;14</title>
<path fill="none" stroke="grey" stroke-width="2" d="M484.894,-431.697C484.894,-423.983 484.894,-414.712 484.894,-406.112"/>
<polygon fill="grey" stroke="grey" stroke-width="2" points="488.394,-406.104 484.894,-396.104 481.394,-406.104 488.394,-406.104"/>
</g>
<!-- 35&#45;&gt;29 -->
<g id="edge51" class="edge"><title>35&#45;&gt;29</title>
<path fill="none" stroke="grey" stroke-width="2" d="M898.413,-252.104C896.767,-259.96 894.01,-269.462 890.888,-278.232"/>
<polygon fill="grey" stroke="grey" stroke-width="2" points="887.571,-277.107 887.248,-287.697 894.104,-279.62 887.571,-277.107"/>
</g>
<!-- 36&#45;&gt;23 -->
<g id="edge44" class="edge"><title>36&#45;&gt;23</title>
<path fill="none" stroke="grey" stroke-width="2" d="M817.894,-1079.7C817.894,-1071.98 817.894,-1062.71 817.894,-1054.11"/>
<polygon fill="grey" stroke="grey" stroke-width="2" points="821.394,-1054.1 817.894,-1044.1 814.394,-1054.1 821.394,-1054.1"/>
</g>
<!-- 37&#45;&gt;7 -->
<g id="edge13" class="edge"><title>37&#45;&gt;7</title>
<path fill="none" stroke="grey" stroke-width="2" d="M698.894,-431.697C698.894,-423.983 698.894,-414.712 698.894,-406.112"/>
<polygon fill="grey" stroke="grey" stroke-width="2" points="702.394,-406.104 698.894,-396.104 695.394,-406.104 702.394,-406.104"/>
</g>
<!-- 38&#45;&gt;4 -->
<g id="edge10" class="edge"><title>38&#45;&gt;4</title>
<path fill="none" stroke="grey" stroke-width="2" d="M514.253,-575.697C509.767,-567.644 504.335,-557.894 499.37,-548.982"/>
<polygon fill="grey" stroke="grey" stroke-width="2" points="502.348,-547.137 494.423,-540.104 496.233,-550.544 502.348,-547.137"/>
</g>
<!-- 39 -->
<g id="node40" class="node"><title>39</title>
<path fill="none" stroke="#565bd8" stroke-width="2" d="M1065.89,-1476C1065.89,-1476 1013.89,-1476 1013.89,-1476 1007.89,-1476 1001.89,-1470 1001.89,-1464 1001.89,-1464 1001.89,-1452 1001.89,-1452 1001.89,-1446 1007.89,-1440 1013.89,-1440 1013.89,-1440 1065.89,-1440 1065.89,-1440 1071.89,-1440 1077.89,-1446 1077.89,-1452 1077.89,-1452 1077.89,-1464 1077.89,-1464 1077.89,-1470 1071.89,-1476 1065.89,-1476"/>
<text text-anchor="middle" x="1039.89" y="-1455.5" font-family="sans" font-size="10.00">input_linking</text>
</g>
<!-- 39&#45;&gt;17 -->
<g id="edge36" class="edge"><title>39&#45;&gt;17</title>
<path fill="none" stroke="grey" stroke-width="2" d="M1029.02,-1439.7C1023.9,-1431.56 1017.7,-1421.69 1012.05,-1412.7"/>
<polygon fill="grey" stroke="grey" stroke-width="2" points="1014.93,-1410.71 1006.65,-1404.1 1009,-1414.43 1014.93,-1410.71"/>
</g>
<!-- 39&#45;&gt;18 -->
<g id="edge39" class="edge"><title>39&#45;&gt;18</title>
<path fill="none" stroke="grey" stroke-width="2" d="M1049.87,-1439.94C1055.28,-1429.83 1061.53,-1416.58 1064.89,-1404 1084.26,-1331.52 1085.56,-1242.24 1084.79,-1198.2"/>
<polygon fill="grey" stroke="grey" stroke-width="2" points="1088.29,-1197.94 1084.56,-1188.02 1081.29,-1198.1 1088.29,-1197.94"/>
</g>
</g>
</svg>
